<svg id="Capa_1" enable-background="new 0 0 497 497" height="512" viewBox="0 0 497 497" width="512" xmlns="http://www.w3.org/2000/svg"><g><path d="m263.5 245.554s-77.92-200.466-130.238-200.466c-15.772 0-31.598 80.556-40.902 138.189 3.22 34.926-8.341 57.086-8.341 57.086s-84.019 7.76-84.019 25.04c0 9.244 33.093 20.419 84.215 28.814 44.437 7.296 179.285-48.663 179.285-48.663z" fill="#7e8b96"/><path d="m243.368 198.027c-92.258-.511-150.255-14.629-150.255-14.629l-.814.265c-5.145 31.911-8.279 56.7-8.279 56.7s63.671 17.68 164.48 17.68c62.112 0 7.194-32.569-5.132-60.016z" fill="#4e5a61"/><path d="m412.98 240.363s-13.56-23.12-8.256-56.563c-9.292-57.667-25.166-138.711-40.986-138.711-52.318 0-102.04 22.96-115.238 22.96s-62.92-22.96-115.238-22.96c18.707 0 28.193 77.446 31.549 149.054.993 21.182 12.369 38.94 1.449 59.858-82.045 30.083-82.045 30.083-82.045 40.216 44.438 7.297 102.497 12.492 164.285 12.492 132.87 0 248.5-24.026 248.5-41.306s-84.02-25.04-84.02-25.04z" fill="#a2abb8"/><path d="m412.98 240.363s-3.125-24.718-8.257-56.563l-.836-.401s-60.151 14.644-155.388 14.644c-32.246 0-60.462-1.68-83.691-3.9.993 21.181 1.451 41.853 1.451 59.857 23.32 2.344 50.994 4.043 82.24 4.043 100.81 0 164.481-17.68 164.481-17.68z" fill="#7e8b96"/><path d="m227.62 370.884c0-19.924-31.952-37.17-80.295-37.17-15.598 0-28.43 1.282-38.682 3.679-.029.005-.066.003-.093.01-21.472 5.036-31.52 15.001-31.52 28.481 0 49.041 26.952 78.527 75.295 78.527 27.765 0 48.474-8.077 61.074-24.244.047-.06.073-.131.114-.194 9.25-11.966 14.107-28.314 14.107-49.089z" fill="#7e8b96"/><path d="m213.38 420.153c-9.07 2.829-19.437 4.258-31.055 4.258-48.344 0-75.295-29.487-75.295-78.527 0-3.005.509-5.831 1.522-8.471.018-.004.038-.012.056-.017-.02.001-.041.002-.058.006-21.472 5.036-31.52 15.001-31.52 28.481 0 49.041 26.952 78.527 75.295 78.527 27.765 0 48.474-8.077 61.074-24.244.006-.007.009-.016.014-.024-.011.004-.022.008-.033.011z" fill="#4e5a61"/><path d="m419.97 365.884c0-19.924-21.952-32.17-70.295-32.17-18.374 0-34.369 2.497-47.153 6.679-.026.008-.059.01-.084.018-20.808 6.825-33.058 18.135-33.058 30.472 0 49.041 26.952 73.527 75.295 73.527 26.049 0 45.887-8.561 58.644-24.129.046-.057.075-.122.117-.181 10.832-13.31 16.534-31.692 16.534-54.216z" fill="#7e8b96"/><g fill="#4e5a61"><path d="m403.305 420.271c-8.478 2.725-18.041 4.141-28.63 4.141-48.344 0-75.295-24.487-75.295-73.527 0-3.605 1.06-7.121 3.061-10.464.018-.006.036-.014.054-.02-.019.004-.039.007-.056.012-20.808 6.825-33.058 18.135-33.058 30.472 0 49.041 26.952 73.527 75.295 73.527 26.049 0 45.887-8.561 58.644-24.129.003-.004.005-.009.009-.013-.009-.001-.017 0-.024.001z"/><path d="m344.675 451.911c-52.958 0-82.316-28.31-82.789-79.759-1.729-1.009-6.488-2.417-13.386-2.417-6.897 0-11.657 1.408-13.386 2.417-.473 51.449-29.832 79.759-82.789 79.759-49.392 0-79.82-29.187-82.588-78.527h-9.987c-4.142 0-7.5-3.358-7.5-7.5s3.358-7.5 7.5-7.5h10.62c3.761-16.057 21.385-32.169 76.956-32.169 41.476 0 73.681 12.489 84.162 31.129 4.53-1.693 10.281-2.608 17.013-2.608s12.483.915 17.013 2.608c10.481-18.64 42.686-31.129 84.162-31.129 55.57 0 73.194 16.112 76.955 32.169h10.62c4.143 0 7.5 3.358 7.5 7.5s-3.357 7.5-7.5 7.5h-9.987c-2.769 49.341-33.198 78.527-82.589 78.527zm5-110.696c-44.964 0-72.795 15.4-72.795 29.669 0 43.813 22.81 66.027 67.795 66.027 43.718 0 67.795-25.225 67.795-71.027 0-21.464-39.343-24.669-62.795-24.669zm-202.35 0c-23.452 0-62.795 3.205-62.795 24.669 0 45.803 24.077 71.027 67.795 71.027 44.985 0 67.795-22.215 67.795-66.027 0-14.269-27.831-29.669-72.795-29.669z"/></g></g></svg>